<svg xmlns="http://www.w3.org/2000/svg" width="110" height="20" viewBox="0 0 110 20">
                <g fill-rule="evenodd">
                    <g id="Desktop-Copy-37" fill="#353535" transform="translate(-26 -25)">
                        <path d="M65.82 25.18c2.07 0 3.02.37 3.6 1.1.85 1.12 1.32 3.34-.05 8.78-1.38 5.45-2.91 7.61-4.34 8.78-.95.74-2.11 1.1-4.17 1.1h-6.61c-2.06 0-3.07-.36-3.6-1.1-.84-1.11-1.32-3.33.1-8.78 1.38-5.44 2.97-7.61 4.4-8.77.95-.74 2.11-1.11 4.17-1.11h6.5zM56.2 40.14c.1.16.37.2 1.22.2h2.54c.84 0 1.16-.04 1.37-.2.27-.22.74-.74 1.8-5.08 1.1-4.33.9-4.86.74-5.07-.1-.16-.37-.22-1.22-.22h-2.48c-.85 0-1.16.06-1.38.22-.26.2-.74.74-1.8 5.07-1.16 4.39-.95 4.86-.79 5.08zm25.64-1.59c-.2-.26-.42-.37-1.69-.37h-2.48a.62.62 0 0 0-.59.48l-1.42 5.81a.62.62 0 0 1-.58.48h-5.13c-.27 0-.42-.21-.37-.48l4.7-18.82a.62.62 0 0 1 .58-.47h12.06c1.95 0 3.01.26 3.6 1 .63.9.84 1.85.15 4.6-.9 3.7-2.27 4.76-4.65 5.23v.06c1.85.47 2.85 1.1 2.22 3.96a57.6 57.6 0 0 0-.8 4.39c-.05.26-.31.53-.58.53h-5.23c-.21 0-.42-.16-.37-.43.16-1.21.37-2.43.69-3.96.21-1.43.1-1.7-.1-2zm-.37-4.65c1.11 0 1.43-.05 1.64-.21.37-.27.64-.74.9-1.9.26-1.17.21-1.6 0-1.86-.16-.16-.42-.2-1.53-.2h-2.75a.62.62 0 0 0-.58.47l-.8 3.28c-.05.26.1.47.37.47h2.75v-.05zm25.85-8.88c2.12 0 3.23.26 3.86 1 .74.9 1 2.27.43 5.34a.62.62 0 0 1-.59.48h-4.91c-.27 0-.43-.21-.37-.43.2-1.21-.06-1.37-.21-1.58-.11-.16-.32-.21-1.22-.21h-2.54c-.9 0-1.16.05-1.37.2-.32.27-.9 1.17-1.85 5.19-.95 4.02-.8 4.97-.64 5.23.1.16.37.21 1.27.21h2.7c.8 0 1.1-.05 1.32-.2.26-.22.8-.75 1.11-2.18l.05-.15h-3.8c-.27 0-.43-.22-.37-.48l.74-3.17a.62.62 0 0 1 .58-.48h9.14c.27 0 .43.21.37.48l-.47 1.95c-1.11 4.82-2.43 6.5-3.8 7.62-1.01.84-2.44 1.16-4.29 1.16h-6.6c-2.07 0-3.07-.37-3.66-1.16-.9-1.17-1.37-3.33-.05-8.83s2.86-7.72 4.28-8.83c.95-.8 2.12-1.16 4.18-1.16h6.71zM127.94 45h-15.8c-.27 0-.43-.21-.38-.48l4.44-19.03a.62.62 0 0 1 .59-.47h18.4c.31 0 .47.31.26.63-.8 1.27-3.86 3.97-7.3 3.97h-6.4a.62.62 0 0 0-.58.47l-.47 2.12c-.05.26.1.47.37.47h8.62c.26 0 .42.21.37.48l-.74 3.33a.62.62 0 0 1-.59.47h-8.61a.62.62 0 0 0-.58.48l-.59 2.43c-.05.27.1.48.37.48H129c.26 0 .42.2.37.47l-.85 3.65a.62.62 0 0 1-.58.53zM51.97 25.18H30.3a.62.62 0 0 0-.58.47l-.53 1.9c-.05.22.05.37.21.48.85.26 5.4.37 4.7 2.9l-.15.7-1.85 6.92-.16.69c-.69 2.54-3.12 2.64-4.13 2.9-.2.06-.37.27-.42.48l-.53 1.9c-.05.27.1.48.37.48h8.83c.27 0 .53-.21.58-.48l1.59-6.13a.62.62 0 0 1 .58-.47h5.66c.26 0 .53-.22.58-.48l.84-3.28c.06-.26-.1-.47-.37-.47h-5.65c-.27 0-.42-.21-.37-.48l.8-2.96a.62.62 0 0 1 .57-.48h8.51c.27 0 .53-.2.59-.47l2.27-3.6c.1-.31 0-.52-.27-.52z"></path>
                    </g>
                </g>
            </svg>
