<?xml version="1.0" encoding="UTF-8"?>
<svg width="274px" height="90px" viewBox="0 0 274 90" version="1.1" xmlns="http://www.w3.org/2000/svg" xmlns:xlink="http://www.w3.org/1999/xlink">
    <!-- Generator: Sketch 48.1 (47250) - http://www.bohemiancoding.com/sketch -->
    <title>Logo</title>
    <desc>Created with Sketch.</desc>
    <defs></defs>
    <g id="Desktop-HD" stroke="none" stroke-width="1" fill="none" fill-rule="evenodd" transform="translate(-565.000000, -144.000000)">
        <g id="Logo" transform="translate(565.000000, 144.000000)">
            <rect id="Rectangle-2" fill="#FFFFFF" x="0" y="0" width="274" height="90" rx="45"></rect>
            <g id="Page-1" transform="translate(27.000000, 19.000000)" fill="#003049">
                <path d="M36.145,28 C36.05,27.345 36,26.68 36,26 C36,18.96 41.225,13.115 48,12.145 L48,8.115 C39.0095,9.11 32,16.75 32,26 C32,26.675 32.04,27.345 32.115,28 C32.315,29.835 32.795,31.585 33.5095,33.21 L37,31.2 C36.595,30.185 36.305,29.115 36.145,28" id="Fill-2"></path>
                <path d="M50,40 C46.65,40 43.565,38.815 41.155,36.845 C40.36,36.195 39.64,35.46 39.01,34.655 L35.515,36.67 C36.335,37.78 37.275,38.785 38.32,39.68 C41.465,42.37 45.545,44 50,44 C52.56,44 55,43.46 57.21,42.485 L55.195,39 C53.59,39.645 51.835,40 50,40" id="Fill-4"></path>
                <path d="M52,47.9048 C51.34,47.9703 50.675,47.9998 50,47.9998 C49.325,47.9998 48.66,47.9703 48,47.9048 C43.23,47.4753 38.89,45.5153 35.485,42.5153 C31.37,38.8998 28.61,33.7653 28.09,27.9998 C28.03,27.3398 28,26.6748 28,25.9998 C28,14.5448 36.805,5.1048 48,4.0948 C48.66,4.0298 49.325,3.9998 50,3.9998 C50.675,3.9998 51.34,4.0298 52,4.0948 C56.77,4.5248 61.11,6.4848 64.515,9.4848 L61.68,12.3203 C59.01,10.0403 55.67,8.5198 52,8.1148 L52,12.1448 C54.57,12.5098 56.925,13.5848 58.8445,15.1548 L56,17.9998 C54.84,17.1248 53.475,16.4998 52,16.1998 C51.355,16.0703 50.685,15.9998 50,15.9998 C49.315,15.9998 48.645,16.0703 48,16.1998 C47.6,16.2798 47.21,16.3848 46.83,16.5148 L48.9,20.1003 C49.255,20.0348 49.625,19.9998 50,19.9998 C50.7,19.9998 51.375,20.1203 52,20.3448 C52.395,20.4848 52.77,20.6653 53.12,20.8798 L50,23.9998 L55.6555,23.9998 C55.88,24.6248 56,25.3003 56,25.9998 C56,27.4848 55.46,28.8503 54.555,29.8948 C53.685,30.9198 52.475,31.6448 51.1,31.8998 C50.74,31.9648 50.375,31.9998 50,31.9998 C48.86,31.9998 47.79,31.6803 46.88,31.1203 L49.27,28.7298 L50,27.9998 L48.845,27.9998 L44.345,27.9998 C44.12,27.3748 44,26.7003 44,25.9998 C44,24.5098 44.545,23.1498 45.445,22.1048 L43.375,18.5198 C41.305,20.3503 40,23.0248 40,25.9998 C40,26.6853 40.07,27.3548 40.2,27.9998 C40.695,30.4353 42.08,32.5498 44,33.9998 C45.67,35.2548 47.75,35.9998 50,35.9998 C51.11,35.9998 52.175,35.8198 53.17,35.4848 C54.46,35.0553 55.635,34.3653 56.63,33.4848 C58.695,31.6498 60,28.9753 60,25.9998 C60,25.3148 59.93,24.6448 59.8,23.9998 L63.855,23.9998 C63.95,24.6548 64,25.3203 64,25.9998 C64,30.4553 61.91,34.4303 58.6555,36.9953 L60.67,40.4848 C65.115,37.2053 68,31.9353 68,25.9998 C68,25.3248 67.96,24.6548 67.885,23.9998 L71.91,23.9998 C71.9695,24.6598 72,25.3248 72,25.9998 C72,37.4553 63.195,46.8948 52,47.9048 L52,47.9048 Z M28,47.9998 L26,47.9998 C25.325,47.9998 24.66,47.9703 24,47.9048 C20.071,47.5503 16.438,46.1543 13.375,43.9998 L20,43.9998 L20,39.9998 L9.0475,39.9998 C6.2975,36.6768 4.504,32.5353 4.093,27.9998 L10,27.9998 L12,27.9998 L14,27.9998 L14,19.9998 L18,19.9998 L18,23.9998 L18,27.9998 L22,27.9998 L24.08,27.9998 C24.1835,29.3658 24.3975,30.7008 24.705,31.9998 L11,31.9998 L11,35.9998 L26.009,35.9998 C26.594,37.3993 27.2965,38.7373 28.1075,39.9998 L24,39.9998 L24,43.9998 L31.2705,43.9998 C31.717,44.4638 32.176,44.9153 32.655,45.3453 C33.74,46.3303 34.915,47.2148 36.155,47.9998 L28,47.9998 Z M24.079,23.9998 L22,23.9998 L22,19.9998 L24.7005,19.9998 C24.3925,21.2988 24.1835,22.6348 24.079,23.9998 L24.079,23.9998 Z M9.0475,11.9998 L28.103,11.9998 C27.2925,13.2633 26.589,14.6008 26.0035,15.9998 L22,15.9998 L18,15.9998 L14,15.9998 L11,15.9998 L10,15.9998 L10,23.9998 L4.093,23.9998 C4.504,19.4648 6.2975,15.3233 9.0475,11.9998 L9.0475,11.9998 Z M26,3.9998 L28,3.9998 L36.155,3.9998 C34.364,5.1323 32.72,6.4778 31.2585,7.9998 L13.375,7.9998 C16.438,5.8458 20.071,4.4493 24,4.0948 C24.66,4.0298 25.325,3.9998 26,3.9998 L26,3.9998 Z M75.92,23.9998 C75.82,22.6398 75.61,21.3003 75.3,19.9998 L59.6555,19.9998 L61.55,18.1048 L64.42,15.2398 L64.42,15.2348 L67.27,12.3848 L70.11,9.5448 C69.27,8.5098 68.3445,7.5403 67.3445,6.6548 C63.205,2.9353 57.87,0.5248 52,0.0748 C51.34,0.0248 50.67,-0.0002 50,-0.0002 L26,-0.0002 C25.33,-0.0002 24.66,0.0248 24,0.0748 C10.595,1.1003 0,12.3348 0,25.9998 C0,32.8463 2.66,39.0818 7,43.7298 L7,43.9998 L7.263,43.9998 C11.564,48.4758 17.444,51.4238 24,51.9248 C24.66,51.9753 25.33,51.9998 26,51.9998 L50,51.9998 C50.67,51.9998 51.34,51.9753 52,51.9248 C65.4055,50.8998 76,39.6653 76,25.9998 C76,25.3248 75.975,24.6598 75.92,23.9998 L75.92,23.9998 Z" id="Fill-6"></path>
            </g>
            <path d="M128.208,50.352 C127.984,50.384 127.728,50.384 127.6,50.384 C126.224,50.384 125.936,49.744 125.936,48.72 L125.936,30 L122,30 L122,49.616 C122,52.496 123.6,54.096 126.512,54.096 C127.152,54.096 127.76,53.968 128.208,53.84 L128.208,50.352 Z M145.936,46.128 C145.936,50.512 142.352,54.096 137.84,54.096 C133.36,54.096 129.776,50.512 129.776,46.128 C129.776,41.712 133.36,38.192 137.84,38.192 C142.352,38.192 145.936,41.712 145.936,46.128 Z M142.064,46.128 C142.064,43.888 140.176,41.968 137.84,41.968 C135.536,41.968 133.648,43.888 133.648,46.128 C133.648,48.4 135.536,50.32 137.84,50.32 C140.176,50.32 142.064,48.4 142.064,46.128 Z M160.464,53.36 L160.464,52.688 C159.248,53.68 157.808,54.096 156.24,54.096 C151.76,54.096 148.176,50.512 148.176,46.128 C148.176,41.712 151.76,38.192 156.24,38.192 C157.776,38.192 159.216,38.608 160.464,39.6 L160.464,38.48 L164.4,38.48 L164.4,52.592 C164.4,60.72 159.216,61.776 156.24,61.776 C153.328,61.776 150.8,60.272 149.392,58.032 L153.008,56.464 C153.776,57.392 154.96,58 156.24,58 C158.576,58 160.464,56.848 160.464,53.36 Z M160.464,46.128 C160.464,43.888 158.576,41.968 156.24,41.968 C153.936,41.968 152.048,43.888 152.048,46.128 C152.048,48.4 153.936,50.32 156.24,50.32 C158.576,50.32 160.464,48.4 160.464,46.128 Z M167.664,51.952 C169.04,53.008 170.864,54.096 173.68,54.096 C177.52,54.096 179.536,52.048 179.536,49.264 C179.536,43.856 171.92,44.88 171.92,42.736 C171.92,42.352 172.176,41.776 173.488,41.776 C174.32,41.776 175.568,42 176.912,42.928 L178.992,40.112 C177.264,38.512 174.8,38.192 173.456,38.192 C170.064,38.192 168.08,40.272 168.08,43.056 C168.08,48.528 175.792,47.12 175.792,49.392 C175.792,49.936 175.344,50.512 173.936,50.512 C172.848,50.512 171.152,50.16 169.744,48.944 L167.664,51.952 Z M207.088,53.68 L207.088,44.912 C207.088,40.144 204.496,38.192 201.136,38.192 C199.536,38.192 197.488,38.736 196.048,40.464 C194.992,38.896 193.232,38.192 191.248,38.192 C189.232,38.192 188.272,38.896 187.312,39.6 L187.312,38.48 L183.376,38.48 L183.376,53.68 L187.312,53.68 L187.312,45.488 C187.312,42.576 188.912,41.968 190.48,41.968 C191.888,41.968 193.264,42.448 193.264,45.552 L193.264,53.68 L197.2,53.68 L197.2,45.488 C197.2,42.576 198.8,41.968 200.368,41.968 C201.776,41.968 203.152,42.448 203.152,45.552 L203.152,53.68 L207.088,53.68 Z M215.536,53.68 L215.536,38.48 L211.6,38.48 L211.6,53.68 L215.536,53.68 Z M213.584,35.952 C214.992,35.952 216.048,34.864 216.048,33.456 C216.048,32.048 214.992,30.992 213.584,30.992 C212.176,30.992 211.088,32.048 211.088,33.456 C211.088,34.864 212.176,35.952 213.584,35.952 Z M228.56,50.224 C228.56,50.224 227.632,50.384 226.64,50.384 C225.232,50.384 224.944,49.392 224.944,48.336 L224.944,42.256 L228.976,42.256 L228.976,38.48 L224.944,38.48 L224.944,33.328 L221.008,33.328 L221.008,38.48 L218.608,38.48 L218.608,42.256 L221.008,42.256 L221.008,49.168 C221.008,52.144 222.544,54.096 225.52,54.096 C227.408,54.096 228.56,53.712 228.56,53.712 L228.56,50.224 Z M246.48,53.68 L246.48,44.912 C246.48,40.144 243.6,38.192 240.272,38.192 C238.192,38.192 237.136,38.96 236.272,39.6 L236.272,30 L232.336,30 L232.336,53.68 L236.272,53.68 L236.272,45.488 C236.272,42.576 237.84,41.968 239.408,41.968 C240.976,41.968 242.544,42.608 242.544,45.552 L242.544,53.68 L246.48,53.68 Z" id="logsmith" fill="#003049"></path>
        </g>
    </g>
</svg>