<?xml version="1.0" encoding="UTF-8"?>
<svg width="220px" height="52px" viewBox="0 0 220 52" version="1.1" xmlns="http://www.w3.org/2000/svg" xmlns:xlink="http://www.w3.org/1999/xlink">
    <!-- Generator: Sketch 48.1 (47250) - http://www.bohemiancoding.com/sketch -->
    <title>Group 19</title>
    <desc>Created with Sketch.</desc>
    <defs></defs>
    <g id="Documentation" stroke="none" stroke-width="1" fill="none" fill-rule="evenodd">
        <g id="Logo" transform="translate(-17.000000, -19.000000)" fill="#003049">
            <g id="Group-19" transform="translate(17.000000, 19.000000)">
                <g id="Page-1">
                    <path d="M36.145,28 C36.05,27.345 36,26.68 36,26 C36,18.96 41.225,13.115 48,12.145 L48,8.115 C39.0095,9.11 32,16.75 32,26 C32,26.675 32.04,27.345 32.115,28 C32.315,29.835 32.795,31.585 33.5095,33.21 L37,31.2 C36.595,30.185 36.305,29.115 36.145,28" id="Fill-2"></path>
                    <path d="M50,40 C46.65,40 43.565,38.815 41.155,36.845 C40.36,36.195 39.64,35.46 39.01,34.655 L35.515,36.67 C36.335,37.78 37.275,38.785 38.32,39.68 C41.465,42.37 45.545,44 50,44 C52.56,44 55,43.46 57.21,42.485 L55.195,39 C53.59,39.645 51.835,40 50,40" id="Fill-4"></path>
                    <path d="M52,47.9048 C51.34,47.9703 50.675,47.9998 50,47.9998 C49.325,47.9998 48.66,47.9703 48,47.9048 C43.23,47.4753 38.89,45.5153 35.485,42.5153 C31.37,38.8998 28.61,33.7653 28.09,27.9998 C28.03,27.3398 28,26.6748 28,25.9998 C28,14.5448 36.805,5.1048 48,4.0948 C48.66,4.0298 49.325,3.9998 50,3.9998 C50.675,3.9998 51.34,4.0298 52,4.0948 C56.77,4.5248 61.11,6.4848 64.515,9.4848 L61.68,12.3203 C59.01,10.0403 55.67,8.5198 52,8.1148 L52,12.1448 C54.57,12.5098 56.925,13.5848 58.8445,15.1548 L56,17.9998 C54.84,17.1248 53.475,16.4998 52,16.1998 C51.355,16.0703 50.685,15.9998 50,15.9998 C49.315,15.9998 48.645,16.0703 48,16.1998 C47.6,16.2798 47.21,16.3848 46.83,16.5148 L48.9,20.1003 C49.255,20.0348 49.625,19.9998 50,19.9998 C50.7,19.9998 51.375,20.1203 52,20.3448 C52.395,20.4848 52.77,20.6653 53.12,20.8798 L50,23.9998 L55.6555,23.9998 C55.88,24.6248 56,25.3003 56,25.9998 C56,27.4848 55.46,28.8503 54.555,29.8948 C53.685,30.9198 52.475,31.6448 51.1,31.8998 C50.74,31.9648 50.375,31.9998 50,31.9998 C48.86,31.9998 47.79,31.6803 46.88,31.1203 L49.27,28.7298 L50,27.9998 L48.845,27.9998 L44.345,27.9998 C44.12,27.3748 44,26.7003 44,25.9998 C44,24.5098 44.545,23.1498 45.445,22.1048 L43.375,18.5198 C41.305,20.3503 40,23.0248 40,25.9998 C40,26.6853 40.07,27.3548 40.2,27.9998 C40.695,30.4353 42.08,32.5498 44,33.9998 C45.67,35.2548 47.75,35.9998 50,35.9998 C51.11,35.9998 52.175,35.8198 53.17,35.4848 C54.46,35.0553 55.635,34.3653 56.63,33.4848 C58.695,31.6498 60,28.9753 60,25.9998 C60,25.3148 59.93,24.6448 59.8,23.9998 L63.855,23.9998 C63.95,24.6548 64,25.3203 64,25.9998 C64,30.4553 61.91,34.4303 58.6555,36.9953 L60.67,40.4848 C65.115,37.2053 68,31.9353 68,25.9998 C68,25.3248 67.96,24.6548 67.885,23.9998 L71.91,23.9998 C71.9695,24.6598 72,25.3248 72,25.9998 C72,37.4553 63.195,46.8948 52,47.9048 L52,47.9048 Z M28,47.9998 L26,47.9998 C25.325,47.9998 24.66,47.9703 24,47.9048 C20.071,47.5503 16.438,46.1543 13.375,43.9998 L20,43.9998 L20,39.9998 L9.0475,39.9998 C6.2975,36.6768 4.504,32.5353 4.093,27.9998 L10,27.9998 L12,27.9998 L14,27.9998 L14,19.9998 L18,19.9998 L18,23.9998 L18,27.9998 L22,27.9998 L24.08,27.9998 C24.1835,29.3658 24.3975,30.7008 24.705,31.9998 L11,31.9998 L11,35.9998 L26.009,35.9998 C26.594,37.3993 27.2965,38.7373 28.1075,39.9998 L24,39.9998 L24,43.9998 L31.2705,43.9998 C31.717,44.4638 32.176,44.9153 32.655,45.3453 C33.74,46.3303 34.915,47.2148 36.155,47.9998 L28,47.9998 Z M24.079,23.9998 L22,23.9998 L22,19.9998 L24.7005,19.9998 C24.3925,21.2988 24.1835,22.6348 24.079,23.9998 L24.079,23.9998 Z M9.0475,11.9998 L28.103,11.9998 C27.2925,13.2633 26.589,14.6008 26.0035,15.9998 L22,15.9998 L18,15.9998 L14,15.9998 L11,15.9998 L10,15.9998 L10,23.9998 L4.093,23.9998 C4.504,19.4648 6.2975,15.3233 9.0475,11.9998 L9.0475,11.9998 Z M26,3.9998 L28,3.9998 L36.155,3.9998 C34.364,5.1323 32.72,6.4778 31.2585,7.9998 L13.375,7.9998 C16.438,5.8458 20.071,4.4493 24,4.0948 C24.66,4.0298 25.325,3.9998 26,3.9998 L26,3.9998 Z M75.92,23.9998 C75.82,22.6398 75.61,21.3003 75.3,19.9998 L59.6555,19.9998 L61.55,18.1048 L64.42,15.2398 L64.42,15.2348 L67.27,12.3848 L70.11,9.5448 C69.27,8.5098 68.3445,7.5403 67.3445,6.6548 C63.205,2.9353 57.87,0.5248 52,0.0748 C51.34,0.0248 50.67,-0.0002 50,-0.0002 L26,-0.0002 C25.33,-0.0002 24.66,0.0248 24,0.0748 C10.595,1.1003 0,12.3348 0,25.9998 C0,32.8463 2.66,39.0818 7,43.7298 L7,43.9998 L7.263,43.9998 C11.564,48.4758 17.444,51.4238 24,51.9248 C24.66,51.9753 25.33,51.9998 26,51.9998 L50,51.9998 C50.67,51.9998 51.34,51.9753 52,51.9248 C65.4055,50.8998 76,39.6653 76,25.9998 C76,25.3248 75.975,24.6598 75.92,23.9998 L75.92,23.9998 Z" id="Fill-6"></path>
                </g>
                <path d="M101.608,31.672 C101.384,31.704 101.128,31.704 101,31.704 C99.624,31.704 99.336,31.064 99.336,30.04 L99.336,11.32 L95.4,11.32 L95.4,30.936 C95.4,33.816 97,35.416 99.912,35.416 C100.552,35.416 101.16,35.288 101.608,35.16 L101.608,31.672 Z M119.336,27.448 C119.336,31.832 115.752,35.416 111.24,35.416 C106.76,35.416 103.176,31.832 103.176,27.448 C103.176,23.032 106.76,19.512 111.24,19.512 C115.752,19.512 119.336,23.032 119.336,27.448 Z M115.464,27.448 C115.464,25.208 113.576,23.288 111.24,23.288 C108.936,23.288 107.048,25.208 107.048,27.448 C107.048,29.72 108.936,31.64 111.24,31.64 C113.576,31.64 115.464,29.72 115.464,27.448 Z M133.864,34.68 L133.864,34.008 C132.648,35 131.208,35.416 129.64,35.416 C125.16,35.416 121.576,31.832 121.576,27.448 C121.576,23.032 125.16,19.512 129.64,19.512 C131.176,19.512 132.616,19.928 133.864,20.92 L133.864,19.8 L137.8,19.8 L137.8,33.912 C137.8,42.04 132.616,43.096 129.64,43.096 C126.728,43.096 124.2,41.592 122.792,39.352 L126.408,37.784 C127.176,38.712 128.36,39.32 129.64,39.32 C131.976,39.32 133.864,38.168 133.864,34.68 Z M133.864,27.448 C133.864,25.208 131.976,23.288 129.64,23.288 C127.336,23.288 125.448,25.208 125.448,27.448 C125.448,29.72 127.336,31.64 129.64,31.64 C131.976,31.64 133.864,29.72 133.864,27.448 Z M141.064,33.272 C142.44,34.328 144.264,35.416 147.08,35.416 C150.92,35.416 152.936,33.368 152.936,30.584 C152.936,25.176 145.32,26.2 145.32,24.056 C145.32,23.672 145.576,23.096 146.888,23.096 C147.72,23.096 148.968,23.32 150.312,24.248 L152.392,21.432 C150.664,19.832 148.2,19.512 146.856,19.512 C143.464,19.512 141.48,21.592 141.48,24.376 C141.48,29.848 149.192,28.44 149.192,30.712 C149.192,31.256 148.744,31.832 147.336,31.832 C146.248,31.832 144.552,31.48 143.144,30.264 L141.064,33.272 Z M180.488,35 L180.488,26.232 C180.488,21.464 177.896,19.512 174.536,19.512 C172.936,19.512 170.888,20.056 169.448,21.784 C168.392,20.216 166.632,19.512 164.648,19.512 C162.632,19.512 161.672,20.216 160.712,20.92 L160.712,19.8 L156.776,19.8 L156.776,35 L160.712,35 L160.712,26.808 C160.712,23.896 162.312,23.288 163.88,23.288 C165.288,23.288 166.664,23.768 166.664,26.872 L166.664,35 L170.6,35 L170.6,26.808 C170.6,23.896 172.2,23.288 173.768,23.288 C175.176,23.288 176.552,23.768 176.552,26.872 L176.552,35 L180.488,35 Z M188.936,35 L188.936,19.8 L185,19.8 L185,35 L188.936,35 Z M186.984,17.272 C188.392,17.272 189.448,16.184 189.448,14.776 C189.448,13.368 188.392,12.312 186.984,12.312 C185.576,12.312 184.488,13.368 184.488,14.776 C184.488,16.184 185.576,17.272 186.984,17.272 Z M201.96,31.544 C201.96,31.544 201.032,31.704 200.04,31.704 C198.632,31.704 198.344,30.712 198.344,29.656 L198.344,23.576 L202.376,23.576 L202.376,19.8 L198.344,19.8 L198.344,14.648 L194.408,14.648 L194.408,19.8 L192.008,19.8 L192.008,23.576 L194.408,23.576 L194.408,30.488 C194.408,33.464 195.944,35.416 198.92,35.416 C200.808,35.416 201.96,35.032 201.96,35.032 L201.96,31.544 Z M219.88,35 L219.88,26.232 C219.88,21.464 217,19.512 213.672,19.512 C211.592,19.512 210.536,20.28 209.672,20.92 L209.672,11.32 L205.736,11.32 L205.736,35 L209.672,35 L209.672,26.808 C209.672,23.896 211.24,23.288 212.808,23.288 C214.376,23.288 215.944,23.928 215.944,26.872 L215.944,35 L219.88,35 Z" id="logsmith"></path>
            </g>
        </g>
    </g>
</svg>